PathFileType	4	(X/Y/Z)	C:/Users/opensim2020/Desktop/walking_exp_matlab/subject03_walking11_straight_04.trc	
DataRate	CameraRate	NumFrames	NumMarkers	Units	OrigDataRate	OrigDataStartFrame	OrigNumFrames	
100.00	100.00	7	46	mm	100.00	3748	350	
Frame#	Time	LFHD			RFHD			LBHD			RBHD			C7			T10			CLAV			STRN			RBAK			LSHO			LUPA			LELB			LFRM			LWRA			LWRB			LFIN			RSHO			RUPA			RELB			RFRM			RWRA			RWRB			RFIN			LASI			RASI			LPSI			RPSI			LTHI			LKNE			LTIB			LANK			LHEE			LTOE			RTHI			RKNE			RTIB			RANK			RHEE			RTOE			*39			*40			*41			*42			*43			*44			*45			
		X1	Y1	Z1	X2	Y2	Z2	X3	Y3	Z3	X4	Y4	Z4	X5	Y5	Z5	X6	Y6	Z6	X7	Y7	Z7	X8	Y8	Z8	X9	Y9	Z9	X10	Y10	Z10	X11	Y11	Z11	X12	Y12	Z12	X13	Y13	Z13	X14	Y14	Z14	X15	Y15	Z15	X16	Y16	Z16	X17	Y17	Z17	X18	Y18	Z18	X19	Y19	Z19	X20	Y20	Z20	X21	Y21	Z21	X22	Y22	Z22	X23	Y23	Z23	X24	Y24	Z24	X25	Y25	Z25	X26	Y26	Z26	X27	Y27	Z27	X28	Y28	Z28	X29	Y29	Z29	X30	Y30	Z30	X31	Y31	Z31	X32	Y32	Z32	X33	Y33	Z33	X34	Y34	Z34	X35	Y35	Z35	X36	Y36	Z36	X37	Y37	Z37	X38	Y38	Z38	X39	Y39	Z39	X40	Y40	Z40	X41	Y41	Z41	X42	Y42	Z42	X43	Y43	Z43	X44	Y44	Z44	X45	Y45	Z45	X46	Y46	Z46	

1	0.000	-948.79150	1122.68970	1592.79041	-1081.16150	1126.55566	1602.77344	-950.41284	1254.46228	1561.32007	-1080.89050	1253.29565	1570.26416	-1024.12280	1299.72449	1407.09021	-1027.13843	1351.82007	1094.13293	-1013.83295	1183.14246	1321.70850	-1007.64716	1152.04224	1155.04480	-1130.74451	1353.86548	1235.91296	-861.52606	1244.32410	1361.04077	-802.37732	1288.49731	1163.51917	-795.28589	1297.98682	1039.72217	-795.36859	1278.15845	911.01074	-827.05743	1255.98560	794.45197	-783.81799	1290.93884	797.70044	-793.28461	1274.49707	715.08234	-1175.49622	1208.93445	1349.02527	-1256.97437	1179.58020	1134.13928	-1272.27942	1144.29114	1027.52441	-1272.21936	1098.87756	898.52789	-1232.06213	1055.10046	811.57813	-1279.97534	1077.14075	801.07129	-1266.99170	1039.43091	737.92828	-902.22040	1191.07166	927.28687	-1140.17126	1185.69763	926.21918	-953.69110	1353.21301	944.60870	-1103.25012	1347.24036	958.41095	-852.75092	1191.71582	625.37744	-895.14996	1127.32898	460.71820	-888.53198	1114.89941	271.70566	-915.27264	1054.46216	67.64835	-956.04449	1080.10730	25.65929	-926.62073	898.80078	62.88501	-1180.32800	1277.52197	636.86627	-1148.14722	1296.87622	457.34216	-1150.52161	1385.94287	284.73135	-1102.18042	1459.60876	79.11337	-1049.74866	1505.11450	52.15813	-1094.91406	1322.29504	29.93949	-993.55457	1199.48059	1665.20435																		 
2	0.010	-947.48163	1115.55249	1592.47400	-1079.89880	1119.53906	1602.43921	-949.06451	1247.34241	1560.85632	-1079.52051	1246.21460	1569.78113	-1022.62714	1292.40747	1406.51111	-1025.98438	1344.21326	1093.57837	-1012.51898	1175.62012	1321.36890	-1006.56378	1144.31006	1154.66528	-1129.36145	1346.38696	1235.43066	-860.12616	1236.76025	1360.50732	-801.46063	1280.47083	1162.69678	-794.81317	1289.88440	1038.88245	-795.05426	1270.74329	910.00366	-826.30383	1248.46179	793.29645	-783.62616	1284.29297	796.72784	-793.19342	1268.62451	713.98224	-1174.11316	1201.62378	1348.71118	-1255.53259	1172.52258	1133.76831	-1270.83154	1137.35474	1027.05811	-1270.81738	1092.07739	898.06891	-1230.75208	1048.32446	811.04144	-1278.51672	1070.46826	800.50458	-1265.57849	1032.85413	737.39606	-901.56604	1183.05127	926.85736	-1139.46033	1178.34058	925.60840	-952.56525	1345.28198	944.40759	-1102.15247	1339.76160	957.86005	-853.28345	1183.29663	625.12506	-895.29663	1119.91248	460.14917	-888.14215	1107.41895	271.29208	-914.94696	1047.36255	67.00855	-955.02057	1073.73511	25.69300	-927.35620	892.01465	62.31116	-1179.88037	1271.35791	636.46057	-1148.01245	1291.58826	456.98569	-1150.47253	1382.70239	285.28952	-1102.52209	1458.91870	80.47559	-1050.19299	1504.74207	53.98072	-1095.09937	1322.05579	29.90540	-992.19482	1192.51843	1664.63428																		 
3	0.020	-946.19189	1108.43384	1592.19727	-1078.62756	1112.46997	1602.16272	-947.66309	1240.07288	1560.42627	-1078.17651	1239.15710	1569.43616	-1020.99054	1284.97937	1405.97693	-1024.68311	1336.43848	1093.02759	-1011.18292	1168.01843	1321.00171	-1005.43103	1136.58215	1154.41077	-1127.79907	1338.85962	1234.93604	-858.62146	1228.95874	1359.99390	-800.40442	1272.25452	1161.99060	-794.12323	1281.58875	1038.06934	-794.56049	1263.02466	909.11798	-826.43280	1242.36987	792.14105	-783.24097	1277.25903	795.87799	-793.03522	1262.43628	712.96472	-1172.71509	1194.40515	1348.50488	-1254.01245	1165.55933	1133.47937	-1269.30249	1130.59692	1026.68103	-1269.31335	1085.50427	897.58667	-1229.34839	1041.73450	810.57123	-1277.10242	1064.03491	800.04309	-1264.16101	1026.47095	736.86731	-900.93152	1174.82239	926.51294	-1138.74377	1170.88037	925.06409	-951.41907	1337.25000	944.27332	-1101.02649	1332.12061	957.36865	-853.74933	1174.90723	625.02887	-895.22369	1112.32251	459.63406	-887.81183	1100.75964	270.64236	-914.99438	1042.22290	65.94682	-953.82190	1070.24890	26.22486	-928.60620	887.08020	59.03534	-1179.47168	1265.07166	636.03448	-1147.66394	1286.20837	456.63232	-1150.22729	1379.34241	285.81342	-1102.87280	1457.92346	81.76308	-1050.53040	1504.25635	55.90593	-1095.28735	1321.82043	29.90162	-990.84930	1185.39355	1664.53271																		 
4	0.030	-944.83948	1101.25024	1592.11401	-1077.27393	1105.39417	1602.01257	-946.23712	1232.97351	1560.23962	-1076.72314	1232.05835	1569.10889	-1019.26477	1277.58276	1405.54004	-1023.29169	1328.55359	1092.56897	-1009.82886	1160.24890	1320.85718	-1004.32928	1128.53760	1154.23425	-1126.08557	1331.35986	1234.49451	-857.04150	1220.97449	1359.55286	-799.16785	1263.69250	1161.29797	-793.17450	1272.91150	1037.36255	-793.88147	1255.01965	908.28546	-825.55762	1234.29651	791.29285	-782.64825	1269.91138	795.11041	-792.80139	1255.85156	711.98102	-1171.27234	1187.21484	1348.45593	-1252.42554	1158.68982	1133.26501	-1267.76355	1124.02930	1026.36877	-1267.85535	1079.02161	897.18475	-1228.01636	1035.25146	810.16815	-1275.58923	1057.76746	799.59766	-1262.69116	1020.27625	736.28387	-900.24316	1166.47278	926.27185	-1137.96179	1163.28284	924.48413	-950.16095	1329.09985	944.18683	-1099.86060	1324.42371	956.87048	-853.98865	1166.56042	625.11877	-894.78345	1104.66882	459.30215	-887.55902	1094.97485	269.93011	-914.97937	1039.65588	64.93884	-954.24231	1069.63354	26.52652	-930.48431	884.69690	51.42818	-1178.98535	1258.64124	635.60718	-1147.47827	1280.42981	456.25217	-1150.08447	1375.75684	286.46600	-1103.15393	1456.86743	83.21062	-1050.84021	1503.71582	58.09939	-1095.46277	1321.54150	29.88015	-989.19952	1178.25330	1663.97583																		 
5	0.040	-943.52399	1093.97510	1592.15491	-1075.97217	1098.33154	1602.05176	-944.71454	1225.60291	1560.06128	-1075.24390	1224.91492	1568.92102	-1017.37976	1270.15137	1405.23523	-1021.76904	1320.52075	1092.19519	-1008.39178	1152.53430	1320.78735	-1003.17444	1120.60364	1154.18018	-1124.10046	1323.87988	1234.20056	-855.37079	1212.79187	1359.17554	-797.74518	1254.98633	1160.66016	-792.08319	1264.12036	1036.68262	-793.09479	1246.76343	907.54816	-825.08954	1226.80835	790.40881	-781.92102	1262.16772	794.41956	-792.43884	1249.00415	711.11523	-1169.73694	1180.08362	1348.39478	-1250.79285	1151.90430	1133.11743	-1266.17932	1117.55896	1026.10632	-1266.40332	1072.87659	896.89557	-1226.55920	1029.00049	809.75543	-1274.07141	1051.70996	799.19305	-1261.22705	1014.38324	735.85492	-899.61993	1158.01404	926.12439	-1137.19775	1155.54480	923.93018	-948.75122	1320.82617	944.20044	-1098.64929	1316.61023	956.45068	-853.92615	1158.22485	625.68030	-894.11920	1097.34119	459.34351	-887.44421	1090.02576	269.41055	-914.96234	1038.55347	63.92090	-954.71973	1069.87805	26.39553	-933.57886	884.31116	42.94100	-1178.44946	1251.96118	635.14386	-1147.10425	1274.32031	455.83725	-1149.82910	1371.79675	287.05740	-1103.41016	1455.73889	84.97239	-1051.09741	1503.06152	60.52614	-1095.59692	1321.28552	29.88022	-987.84412	1171.21228	1663.91870																		 
6	0.050	-942.11719	1086.60571	1592.48059	-1074.58936	1091.17810	1602.35535	-943.11060	1218.26892	1560.17761	-1073.60034	1217.65820	1568.95496	-1015.36096	1262.64417	1405.18420	-1020.27802	1312.47180	1092.08618	-1006.97791	1144.75757	1320.91589	-1002.13794	1112.46851	1154.16504	-1121.95557	1316.47595	1234.10205	-853.58380	1204.38367	1358.89343	-796.16919	1245.99829	1160.17163	-790.70575	1255.00330	1036.12976	-792.12805	1238.13342	906.83197	-824.51495	1219.20435	789.64130	-780.97961	1254.09949	793.79291	-792.00659	1241.67310	710.35760	-1168.29309	1172.93896	1348.61438	-1249.15845	1145.24841	1133.09094	-1264.56152	1111.18591	1025.93591	-1264.82214	1066.88513	896.55841	-1225.15112	1022.88489	809.43439	-1272.54260	1045.89258	798.91266	-1259.76538	1008.63055	735.44684	-898.90338	1149.46436	926.27478	-1136.44202	1147.79724	923.47992	-947.39032	1312.55225	944.50720	-1097.46460	1308.80017	956.07587	-853.37823	1149.96289	626.73059	-893.39978	1090.61621	459.58566	-887.19537	1085.77490	269.16089	-914.70532	1036.43921	63.28204	-953.61249	1069.34570	26.94910	-937.52606	882.67047	38.35119	-1177.73132	1244.96301	634.68799	-1146.47583	1267.79077	455.42535	-1149.53369	1367.49377	287.84412	-1103.62317	1454.45605	87.07994	-1051.25330	1502.23096	63.33648	-1095.74194	1320.97351	29.88969	-986.21942	1164.00928	1664.04114																		 
7	0.060	-940.72571	1079.20056	1593.16077	-1073.20593	1083.98560	1602.95032	-941.52557	1210.79993	1560.58899	-1072.07214	1210.46143	1569.36646	-1013.30554	1255.05200	1405.48853	-1018.82080	1304.48145	1092.28918	-1005.52850	1136.94995	1321.38806	-1001.04492	1104.48706	1154.79871	-1119.71191	1309.11218	1234.25769	-851.82043	1195.83398	1358.82092	-794.47296	1236.68335	1159.84766	-789.22418	1245.58203	1035.60742	-791.04614	1229.28381	906.38074	-823.86212	1211.14099	789.18555	-779.86401	1245.63953	793.37982	-791.40759	1234.14966	709.79620	-1166.79858	1165.76672	1348.89087	-1247.43005	1138.70752	1133.26074	-1262.91272	1104.95325	1025.96667	-1263.21436	1061.00269	896.48285	-1223.67798	1016.95569	809.25848	-1270.92017	1040.29468	798.66504	-1258.27991	1003.14813	735.16632	-898.20880	1140.94250	926.81030	-1135.67175	1140.03516	923.20728	-945.97760	1304.24951	945.09967	-1096.33191	1300.98987	955.88226	-852.60089	1141.85120	628.22766	-892.62213	1084.68445	460.20953	-886.59009	1081.68713	269.23569	-914.93451	1033.50879	63.56865	-953.10345	1067.79419	28.17238	-937.76746	879.91388	37.05568	-1176.99609	1237.69116	634.42834	-1146.00586	1260.57483	455.16351	-1149.12732	1362.84570	288.85229	-1103.77905	1452.91809	89.48712	-1051.35437	1501.20142	66.61362	-1095.57434	1320.79956	29.77223	-984.82233	1156.73413	1664.88647																		 
